<svg width="29" height="22" viewBox="0 0 29 22" xmlns="http://www.w3.org/2000/svg">
    <defs>
        <filter id="a">
            <feColorMatrix in="SourceGraphic" values="0 0 0 0 1.000000 0 0 0 0 1.000000 0 0 0 0 1.000000 0 0 0 1.000000 0"/>
        </filter>
    </defs>
    <g transform="translate(-17 -145)" filter="url(#a)" fill="none" fill-rule="evenodd">
        <g fill="#007AFF">
            <path d="m19.41 150.74 11.646 4.435L42.7 150.74l-11.645-4.436-11.647 4.436zm11.646 5.738a.648.648 0 0 1-.232-.042l-13.416-5.11a.63.63 0 0 1-.408-.587.63.63 0 0 1 .408-.587l13.416-5.11a.656.656 0 0 1 .462 0l13.417 5.11a.63.63 0 0 1 .408.587.63.63 0 0 1-.408.587l-13.417 5.11a.648.648 0 0 1-.23.042z"/>
            <path d="M31.056 162.217a.669.669 0 0 1-.231-.04l-13.417-4.93a.61.61 0 0 1-.408-.566.61.61 0 0 1 .408-.567l6.709-2.464a.65.65 0 0 1 .826.346.598.598 0 0 1-.365.785l-5.169 1.9 11.647 4.28 11.646-4.28-5.169-1.9a.598.598 0 0 1-.365-.785.651.651 0 0 1 .827-.346l6.708 2.464a.61.61 0 0 1 .408.567.61.61 0 0 1-.408.566l-13.417 4.93a.669.669 0 0 1-.23.04"/>
            <path d="M31.056 167a.66.66 0 0 1-.231-.041l-13.417-4.996a.617.617 0 0 1-.408-.574c0-.254.162-.481.408-.573l6.39-2.383a.646.646 0 0 1 .826.352.61.61 0 0 1-.366.795l-4.85 1.809 11.648 4.337 11.646-4.337-4.85-1.809a.61.61 0 0 1-.365-.795.647.647 0 0 1 .827-.352l6.389 2.383c.246.092.408.32.408.573a.617.617 0 0 1-.408.574l-13.417 4.996a.66.66 0 0 1-.23.041"/>
        </g>
    </g>
</svg>
