<svg width="32" height="21" viewBox="0 0 32 21" xmlns="http://www.w3.org/2000/svg" xmlns:xlink="http://www.w3.org/1999/xlink">
    <defs>
        <path id="b" d="M.303.006h12.33v16.451H.303z"/>
        <path id="d" d="M0 0h22.69v17.065H0z"/>
        <filter id="a">
            <feColorMatrix in="SourceGraphic" values="0 0 0 0 1.000000 0 0 0 0 1.000000 0 0 0 0 1.000000 0 0 0 1.000000 0"/>
        </filter>
    </defs>
    <g transform="translate(-16 -90)" filter="url(#a)" fill="none" fill-rule="evenodd">
        <path d="m42.997 95.486-.758 1.277c2.69 2.554 4.243 6.68 4.243 9.2H37.03c.034.23.034 1.18 0 1.408H47.24c.414 0 .759-.327.759-.72-.035-4.355-1.932-8.317-5.003-11.165" fill="#000"/>
        <g transform="translate(28.8 92.743)">
            <mask id="c" fill="#fff">
                <use xlink:href="#b"/>
            </mask>
            <path d="M3.335 14.946c-.876 0-1.55-.706-1.55-1.545 0-.873.708-1.545 1.55-1.545.876 0 1.55.705 1.55 1.545s-.708 1.545-1.55 1.545zM12.564.806c.135-.235.068-.57-.168-.705-.236-.168-.54-.1-.741.1l-8.152 10.21h-.168c-1.65 0-3.032 1.344-3.032 3.024a3.036 3.036 0 0 0 3.032 3.022 3.015 3.015 0 0 0 3.031-3.022c0-.403-.067-.773-.235-1.11L12.564.806z" fill="#000" mask="url(#c)"/>
        </g>
        <g transform="translate(16 90)">
            <mask id="e" fill="#fff">
                <use xlink:href="#d"/>
            </mask>
            <path d="M16.1 0C7.228 0 0 7.323 0 16.315c0 .41.336.75.74.75h9.916c-.034-.239-.034-1.226 0-1.465H3.73C4.168 8.14 11.328.613 20.74 4.837l1.95-3.372A15.31 15.31 0 0 0 16.1 0" fill="#000" mask="url(#e)"/>
        </g>
    </g>
</svg>
