<svg width="17" height="22" viewBox="0 0 17 22" xmlns="http://www.w3.org/2000/svg" xmlns:xlink="http://www.w3.org/1999/xlink">
    <defs>
        <filter id="a">
            <feColorMatrix in="SourceGraphic" values="0 0 0 0 1.000000 0 0 0 0 1.000000 0 0 0 0 1.000000 0 0 0 1.000000 0"/>
        </filter>
        <path id="b" d="M0 .43h16.72v21.13H0z"/>
    </defs>
    <g transform="translate(-59 -629)" filter="url(#a)" fill="none" fill-rule="evenodd">
        <path d="M66.92 645.29a.88.88 0 0 0-.88.88v.88a.88.88 0 1 0 1.76 0v-.88a.88.88 0 0 0-.88-.88" fill="#000"/>
        <g transform="translate(59 629.01)">
            <mask id="c" fill="#fff">
                <use xlink:href="#b"/>
            </mask>
            <path d="M15.84 14.08H.88V1.32h11.44V4.4c0 .73.59 1.32 1.32 1.32h2.2v8.36zm-1.76 5.72a.44.44 0 0 1-.88 0v-.246a1.76 1.76 0 0 1-2.64-1.514v-.88a1.76 1.76 0 0 1 3.08-1.175.441.441 0 0 1-.656.59.88.88 0 0 0-1.544.585v.88a.88.88 0 0 0 1.637.44h-.317a.44.44 0 0 1 0-.88h.88a.44.44 0 0 1 .44.44v1.76zm-4.4-1.76a1.76 1.76 0 0 1-3.52 0v-.88a1.76 1.76 0 0 1 3.52 0v.88zM4.84 19.8H3.08a.44.44 0 0 1-.44-.44v-3.52a.44.44 0 0 1 .88 0v3.08h1.32a.44.44 0 0 1 0 .88zM16.72 5.28c0-.22.158.057-3.612-4.655C12.984.365 13.478.44.44.44A.44.44 0 0 0 0 .88v20.24c0 .243.197.44.44.44h15.84a.44.44 0 0 0 .44-.44V5.28z" fill="#000" mask="url(#c)"/>
        </g>
        <path d="m63.422 634.987.88-2.64a.44.44 0 1 1 .836.282l-.88 2.64a.44.44 0 1 1-.836-.282M66.04 635.128a.44.44 0 0 1-.312-.752l.572-.568-.572-.568a.442.442 0 0 1 .624-.624l.88.88a.44.44 0 0 1 .003.622l-.003.002c-.959.96-.954 1.008-1.192 1.008M62.52 635.128c-.238 0-.25-.066-1.192-1.008a.44.44 0 0 1-.003-.622l.003-.002.88-.88a.442.442 0 0 1 .624.624l-.572.568.572.568a.44.44 0 0 1-.312.752M68.68 638.25h-7.04a.44.44 0 0 1 0-.88h7.04a.44.44 0 0 1 0 .88M73.08 640.01H61.64a.44.44 0 0 1 0-.88h11.44a.44.44 0 0 1 0 .88M73.08 641.77H61.64a.44.44 0 0 1 0-.88h11.44a.44.44 0 0 1 0 .88" fill="#000"/>
    </g>
</svg>
