<svg width="22" height="22" viewBox="0 0 22 22" xmlns="http://www.w3.org/2000/svg" xmlns:xlink="http://www.w3.org/1999/xlink">
    <defs>
        <filter id="a">
            <feColorMatrix in="SourceGraphic" values="0 0 0 0 1.000000 0 0 0 0 1.000000 0 0 0 0 1.000000 0 0 0 1.000000 0"/>
        </filter>
        <path id="b" d="M0 0h21.901v21.964H0z"/>
    </defs>
    <g transform="translate(0 -53)" filter="url(#a)" fill="none" fill-rule="evenodd">
        <g transform="translate(0 53)">
            <mask id="c" fill="#fff">
                <use xlink:href="#b"/>
            </mask>
            <path d="M4.636 3.168V6.13h.931a.278.278 0 0 1 .225.433l-1.82 2.714a.278.278 0 0 1-.225.124.278.278 0 0 1-.225-.124L1.684 6.564a.278.278 0 0 1 .224-.433h.934V2.274c0-.496.402-.898.898-.898h5.401c.222 0 .402.18.402.402v.988c0 .222-.18.402-.402.402H4.636zm11.137 5.226a2.245 2.245 0 1 1 0-4.49 2.245 2.245 0 0 1 0 4.49zm5.542-1.17a.707.707 0 0 0 .586-.696V5.75a.707.707 0 0 0-.586-.696l-.918-.161a4.75 4.75 0 0 0-.462-1.148l.536-.765a.707.707 0 0 0-.078-.898l-.557-.559a.707.707 0 0 0-.898-.079l-.772.537a4.767 4.767 0 0 0-1.15-.476L16.86.586A.707.707 0 0 0 16.163 0h-.78a.707.707 0 0 0-.697.586l-.161.918c-.401.108-.786.268-1.145.476l-.766-.537a.707.707 0 0 0-.898.079l-.559.552a.707.707 0 0 0-.078.898l.536.766c-.208.359-.368.744-.476 1.145l-.918.161a.707.707 0 0 0-.586.696v.78c0 .343.248.636.586.695l.92.162c.108.4.268.785.476 1.145l-.536.765a.707.707 0 0 0 .078.898l.548.573a.707.707 0 0 0 .898.078l.766-.536c.359.207.744.368 1.145.475l.161.919a.707.707 0 0 0 .696.586h.781a.707.707 0 0 0 .696-.586l.166-.923c.401-.108.786-.268 1.145-.476l.766.537c.28.192.656.16.898-.079l.559-.55a.707.707 0 0 0 .078-.898l-.527-.774c.205-.358.363-.742.469-1.14l.911-.167zm-4.04 11.573v-2.964h-.932a.278.278 0 0 1-.225-.433l1.828-2.714a.278.278 0 0 1 .224-.124c.09.003.174.049.225.124l1.832 2.714a.278.278 0 0 1-.225.433h-.94v3.857a.898.898 0 0 1-.898.898h-5.395a.402.402 0 0 1-.402-.402v-.988c0-.222.18-.401.402-.401h4.506zM6.138 13.57a2.245 2.245 0 1 1 0 4.49 2.245 2.245 0 0 1 0-4.49zM.586 16.913l.918.162c.107.4.265.785.472 1.145l-.532.763a.707.707 0 0 0 .078.898l.552.552a.707.707 0 0 0 .898.079l.766-.537c.362.212.75.375 1.156.485l.162.918a.707.707 0 0 0 .695.586h.782a.707.707 0 0 0 .696-.586l.161-.918c.401-.108.786-.268 1.145-.476l.766.537c.279.192.656.16.898-.079l.552-.552a.707.707 0 0 0 .078-.898l-.536-.766c.208-.359.368-.744.476-1.145l.918-.161a.707.707 0 0 0 .586-.696v-.788a.707.707 0 0 0-.586-.696l-.916-.166a4.757 4.757 0 0 0-.476-1.145l.537-.766a.707.707 0 0 0-.079-.898l-.55-.558a.707.707 0 0 0-.898-.08l-.774.542a4.766 4.766 0 0 0-1.145-.476l-.162-.918a.707.707 0 0 0-.696-.586H5.75a.707.707 0 0 0-.696.586l-.16.918c-.4.108-.785.268-1.144.476l-.765-.537a.707.707 0 0 0-.898.079l-.56.55a.707.707 0 0 0-.078.898l.528.774a4.76 4.76 0 0 0-.47 1.14l-.92.162a.707.707 0 0 0-.586.696v.78a.707.707 0 0 0 .586.702z" fill="#000" mask="url(#c)"/>
        </g>
    </g>
</svg>
