<svg width="22" height="22" viewBox="0 0 22 22" xmlns="http://www.w3.org/2000/svg" xmlns:xlink="http://www.w3.org/1999/xlink">
    <defs>
        <filter id="a">
            <feColorMatrix in="SourceGraphic" values="0 0 0 0 1.000000 0 0 0 0 1.000000 0 0 0 0 1.000000 0 0 0 1.000000 0"/>
        </filter>
        <path id="b" d="M0 0h22v22H0z"/>
    </defs>
    <g transform="translate(-22 -806)" filter="url(#a)" fill="none" fill-rule="evenodd">
        <g transform="translate(22 806)">
            <mask id="c" fill="#fff">
                <use xlink:href="#b"/>
            </mask>
            <path d="M6.11 22c3.052 0 6.109-.364 6.109-1.105a6.8 6.8 0 0 0-3.286-5.672 4.407 4.407 0 0 1-5.647 0A6.8 6.8 0 0 0 0 20.895C0 21.635 3.056 22 6.11 22m0-13.612a3.44 3.44 0 1 0 0 6.88 3.44 3.44 0 0 0 0-6.88m12.543-2.167 1.335-1.335a.815.815 0 0 0 .076-1.063 9.599 9.599 0 0 0-1.89-1.888.815.815 0 0 0-1.061.076l-1.335 1.335a7.18 7.18 0 0 0-1.359-.565V.896a.818.818 0 0 0-.7-.806 9.905 9.905 0 0 0-2.664 0 .817.817 0 0 0-.699.806v1.885c-.471.142-.927.33-1.36.565L7.663 2.011a.814.814 0 0 0-1.06-.076 9.666 9.666 0 0 0-1.89 1.888.818.818 0 0 0 .075 1.063l1.335 1.335c-.169.31-.313.633-.433.965a4.447 4.447 0 0 1 1.29.064c.122-.278.263-.546.424-.802l.262-.413L5.909 4.28a8.47 8.47 0 0 1 1.147-1.147L8.81 4.888l.413-.261a6.014 6.014 0 0 1 1.878-.777l.477-.108V1.261a8.521 8.521 0 0 1 1.618 0v2.481l.476.108c.666.15 1.3.413 1.878.777l.413.261 1.756-1.755c.418.345.801.729 1.146 1.147l-1.755 1.755.261.413c.364.577.627 1.212.777 1.878l.108.476h2.481c.053.538.053 1.08 0 1.618h-2.48l-.109.477c-.15.665-.413 1.3-.777 1.877l-.261.414 1.755 1.755a8.468 8.468 0 0 1-1.146 1.146l-1.756-1.755-.413.262a6.032 6.032 0 0 1-1.878.777l-.476.107v3.704c.164-.012.362-.032.523-.054.4-.057.699-.4.7-.804v-1.887c.47-.14.926-.328 1.358-.563l1.335 1.335a.818.818 0 0 0 1.064.076 9.72 9.72 0 0 0 1.887-1.887.815.815 0 0 0-.076-1.064l-1.335-1.334c.234-.433.424-.888.565-1.36h1.885a.816.816 0 0 0 .807-.698c.12-.885.12-1.781 0-2.665a.816.816 0 0 0-.807-.7h-1.885a7.203 7.203 0 0 0-.565-1.358m-3.325 3.39a2.941 2.941 0 0 0-5.744-.89 4.735 4.735 0 0 0-.986-.833 4.163 4.163 0 1 1 1.924 5.444c.14-.41.223-.837.245-1.269a2.938 2.938 0 0 0 4.561-2.452" fill="#000" mask="url(#c)"/>
        </g>
    </g>
</svg>
